# xmcd
#
# Track frame offsets: 
#        150
#        20012
#        37297
#        62920
#        88587
#        116870
#        137542
#        176642
#        194890
#        209432
#
# Disc length: 3186 seconds
#
# Revision: 1
# Processed by: cddbd v1.5.2PL0 Copyright (c) Steve Scherf et al.
# Submitted via: ExactAudioCopy v0.95b3
#
DISCID=9f0c700a
DTITLE=Buddy Guy and Junior Wells - Last Time Around - Live At Legends
DYEAR=1998
DGENRE=Blues
TTITLE0=Seeds Of Reed
TTITLE1=That's All Right
TTITLE2=She's All Right-Still A Fool
TTITLE3=Hoochie Coochie Man
TTITLE4=What I'd Say (It's All Right)
TTITLE5=Key To The Highway
TTITLE6=I've Been There
TTITLE7=Feelin' Good-What I'd Say
TTITLE8=Oh Baby-You Better Watch Yourself
TTITLE9=Hoodoo Man Blues
EXTD=Silvertone 
EXTT0=
EXTT1=
EXTT2=
EXTT3=
EXTT4=
EXTT5=
EXTT6=
EXTT7=
EXTT8=
EXTT9=
PLAYORDER=
